<svg width="50" height="50" xmlns="http://www.w3.org/2000/svg">
 <!-- Created with Method Draw - http://github.com/duopixel/Method-Draw/ -->
 <g>
  <title>background</title>
  <rect fill="none" id="canvas_background" height="52" width="52" y="-1" x="-1"/>
 </g>
 <g>
  <title>Layer 1</title>
  <path d="m49.427448,49.541859c0,-0.114414 -0.20874,-0.240028 -0.343243,-0.457657c-0.06015,-0.097328 -0.070629,-0.123123 -0.114414,-0.228828c-0.12384,-0.298977 -0.185043,-0.351952 -0.228828,-0.457657c-0.06192,-0.14949 -0.185043,-0.123123 -0.228828,-0.228828c-0.06192,-0.14949 -0.114414,-0.228828 -0.228828,-0.228828c-0.114414,0 -0.136009,-0.16193 -0.228828,-0.228828c-0.293514,-0.211555 -0.228832,-0.457657 -0.343246,-0.572071c-0.114414,-0.114414 -0.147926,-0.147926 -0.228828,-0.228828c-0.080902,-0.080902 -0.228828,-0.114418 -0.343243,-0.228832c-0.114414,-0.114414 -0.114414,-0.228828 -0.228828,-0.343243c-0.114414,-0.114414 -0.193653,-0.135696 -0.343243,-0.343243c-0.094608,-0.131264 -0.228828,-0.228828 -0.343243,-0.343243c-0.114414,-0.114414 -0.228828,-0.114414 -0.228828,-0.228828c0,-0.114414 -0.0112,-0.323154 -0.228828,-0.457657c-0.097328,-0.06015 -0.114414,-0.114414 -0.228828,-0.228828c-0.114414,-0.114414 -0.06702,-0.181435 -0.228828,-0.343243c-0.080902,-0.080902 -0.147926,-0.033512 -0.228828,-0.114414c-0.080902,-0.080902 -0.033512,-0.262341 -0.114414,-0.343243c-0.080902,-0.080902 -0.070629,-0.123123 -0.114414,-0.228828c-0.06192,-0.14949 -0.147926,-0.147926 -0.228828,-0.228828c-0.080902,-0.080902 -0.070629,-0.237537 -0.114414,-0.343243c-0.06192,-0.14949 -0.248634,-0.211979 -0.343243,-0.343243c-0.14959,-0.207546 -0.125614,-0.437569 -0.343243,-0.572071c-0.097328,-0.06015 -0.281322,-0.193752 -0.343243,-0.343243c-0.043785,-0.105705 -0.070629,-0.123123 -0.114414,-0.228828c-0.12384,-0.298977 -0.299458,-0.237537 -0.343243,-0.343243c-0.06192,-0.14949 -0.262341,-0.147926 -0.343243,-0.228828c-0.080902,-0.080902 -0.0112,-0.20874 -0.228828,-0.343243c-0.097328,-0.06015 -0.147926,-0.033512 -0.228828,-0.114414c-0.080902,-0.080902 -0.123123,-0.185043 -0.228828,-0.228828c-0.448467,-0.18576 -0.666397,-0.354443 -0.8009,-0.572071c-0.120304,-0.194653 -0.147926,-0.376755 -0.228828,-0.457657c-0.080902,-0.080902 -0.281322,-0.079338 -0.343243,-0.228828c-0.043785,-0.105705 -0.154022,-0.195129 -0.343243,-0.457657c-0.14959,-0.207546 -0.436222,-0.481319 -0.686485,-0.686485c-0.319023,-0.261536 -0.422581,-0.395737 -0.572071,-0.457657c-0.105705,-0.043785 -0.276752,-0.391167 -0.457657,-0.572071c-0.180904,-0.180904 -0.308167,-0.395737 -0.457657,-0.457657c-0.105705,-0.043785 -0.162338,-0.047924 -0.343243,-0.228828c-0.180904,-0.180904 -0.228828,-0.343246 -0.343243,-0.457661c-0.114414,-0.114414 -0.262341,-0.147926 -0.343243,-0.228828c-0.080902,-0.080902 -0.070633,-0.123123 -0.114418,-0.228828c-0.06192,-0.14949 -0.202541,-0.117474 -0.228828,-0.228828c-0.058781,-0.248993 -0.228828,-0.228828 -0.343243,-0.343243c-0.114414,-0.114414 -0.228828,-0.228828 -0.343243,-0.343243c-0.114414,-0.114414 -0.262341,-0.147926 -0.343243,-0.228828c-0.080902,-0.080902 -0.079338,-0.281322 -0.228828,-0.343243c-0.105705,-0.043785 -0.284462,-0.09425 -0.343243,-0.343243c-0.026287,-0.111355 -0.123123,-0.185043 -0.228828,-0.228828c-0.14949,-0.06192 -0.135696,-0.193653 -0.343243,-0.343243c-0.131264,-0.094608 -0.123123,-0.185043 -0.228828,-0.228828c-0.14949,-0.06192 -0.123123,-0.185043 -0.228828,-0.228828c-0.14949,-0.06192 -0.281322,-0.079338 -0.343243,-0.228828c-0.043785,-0.105705 -0.079338,-0.166908 -0.228828,-0.228828c-0.105705,-0.043785 -0.114414,-0.114414 -0.228828,-0.228828c-0.114414,-0.114414 -0.147926,-0.147924 -0.228828,-0.228828c-0.080902,-0.080904 -0.114414,-0.114414 -0.228828,-0.228828c-0.114414,-0.114414 -0.281322,-0.07934 -0.343243,-0.228828c-0.043785,-0.105705 0.035076,-0.281322 -0.114414,-0.343243c-0.105705,-0.043785 -0.147926,-0.03351 -0.228828,-0.114414c-0.080902,-0.080904 -0.13422,-0.211979 -0.228828,-0.343243c-0.149591,-0.207546 -0.228828,-0.228828 -0.228828,-0.343243c0,-0.114414 -0.03351,-0.147924 -0.114414,-0.228828c-0.080904,-0.080904 -0.281322,-0.07934 -0.343243,-0.228828c-0.043785,-0.105705 -0.008709,-0.185043 -0.114414,-0.228828c-0.149488,-0.06192 -0.067022,-0.295851 -0.228828,-0.457657c-0.161806,-0.161806 -0.262339,-0.03351 -0.343243,-0.114414c-0.161806,-0.161806 -0.147924,-0.147924 -0.228828,-0.228828c-0.080904,-0.080904 -0.114414,-0.114414 -0.228828,-0.228828c-0.114414,-0.114414 -0.228828,-0.114414 -0.228828,-0.228828c0,-0.114414 -0.079338,-0.281322 -0.228828,-0.343245c-0.105705,-0.043785 -0.114414,-0.114412 -0.228828,-0.228828c-0.114414,-0.114414 -0.323154,-0.125614 -0.457657,-0.343243c-0.060152,-0.097326 -0.114414,-0.228828 -0.228828,-0.343243c-0.114414,-0.114414 -0.131832,-0.141258 -0.343245,-0.228828c-0.149488,-0.06192 -0.228828,-0.228828 -0.343243,-0.343243c-0.114414,-0.114414 -0.281322,-0.193754 -0.343243,-0.343243c-0.043785,-0.105705 -0.114414,-0.114414 -0.228828,-0.228828c-0.114414,-0.114414 -0.228828,-0.114414 -0.343243,-0.228828c-0.114414,-0.114414 -0.281322,-0.193754 -0.343243,-0.343243c-0.043785,-0.105705 -0.03351,-0.147924 -0.114414,-0.228828c-0.080904,-0.080904 -0.228828,-0.114414 -0.228828,-0.228828c0,-0.114414 -0.070629,-0.123123 -0.114414,-0.228828c-0.06192,-0.149488 -0.202541,-0.117476 -0.228828,-0.228828c-0.058779,-0.248995 -0.281322,-0.422583 -0.343243,-0.572071c-0.043785,-0.105705 -0.109285,-0.177246 -0.228828,-0.572071c-0.066311,-0.219009 -0.114414,-0.343243 -0.228828,-0.457657c-0.114414,-0.114414 -0.114414,-0.22883 -0.228828,-0.343245c-0.114414,-0.114414 -0.147924,-0.147924 -0.228828,-0.228828c-0.080904,-0.080904 -0.355074,-0.332525 -0.457657,-0.457657c-0.261538,-0.319023 -0.457657,-0.343243 -0.572071,-0.457657c-0.228828,-0.228828 -0.478939,-0.42248 -0.686487,-0.572071c-0.131264,-0.09461 -0.228828,-0.114414 -0.343243,-0.228828c-0.114414,-0.114414 -0.185043,-0.123123 -0.228828,-0.228828c-0.06192,-0.149488 -0.264297,-0.153028 -0.572071,-0.343243c-0.412922,-0.255199 -0.510151,-0.308168 -0.572071,-0.457657c-0.043785,-0.105705 -0.193754,-0.281322 -0.343243,-0.343243c-0.105705,-0.043785 -0.246246,-0.14126 -0.457657,-0.228828c-0.149488,-0.06192 -0.262339,-0.147924 -0.343243,-0.228828c-0.080904,-0.080904 -0.03351,-0.147924 -0.114414,-0.228828c-0.080904,-0.080904 -0.067022,-0.067022 -0.228828,-0.228828c-0.080904,-0.080904 -0.262339,-0.147924 -0.343243,-0.228828c-0.080904,-0.080904 -0.03351,-0.147924 -0.114414,-0.228828c-0.080904,-0.080904 -0.114414,-0.114414 -0.228828,-0.114414l0,-0.114414" id="svg_12" stroke-width="1.5" stroke="#fff" fill="none"/>
  <path d="m2.059945,1.602285c0.114414,0 0.228829,0 0.343243,0c0.114414,0 0.228828,0 0.343243,0c0.114414,0 0.228829,0 0.457657,0c0.114414,0 0.229686,-0.01398 0.343243,0c0.468207,0.057639 0.686485,0.228829 0.915314,0.228829c0.114414,0 0.228828,0.114414 0.343243,0.114414c0.114415,0 0.193754,0.052494 0.343243,0.114414c0.21141,0.087569 0.343243,0.114414 0.457657,0.114414c0.114414,0 0.147925,0.033511 0.228828,0.114414c0.080904,0.080903 0.308168,0.052494 0.457657,0.114414c0.21141,0.087569 0.346303,0.088127 0.457657,0.114414c0.248994,0.058779 0.343243,0.228828 0.457657,0.228828c0.114414,0 0.26234,-0.080903 0.343243,0c0.080903,0.080903 0.114414,0.114414 0.228828,0.228828c0.114414,0.114414 0.228828,0.114414 0.343243,0.114414c0.228828,0 0.228828,0.114414 0.343243,0.114414c0.114414,0 0.228828,0 0.457657,0.114414c0.228828,0.114414 0.422582,0.166908 0.572071,0.228829c0.317115,0.131353 0.459134,0.096087 0.572071,0.114414c0.357138,0.057956 0.437491,0.170049 0.686485,0.228828c0.111355,0.026287 0.314998,0.152479 0.457658,0.228829c0.514369,0.275282 0.65141,0.166908 0.8009,0.228828c0.105705,0.043785 0.211979,0.134219 0.343243,0.228828c0.207546,0.149591 0.510584,-0.143001 0.8009,0.228828c0.070412,0.090182 0.129142,0.014947 0.457658,0.114414c0.394826,0.119544 0.686485,0.343243 0.8009,0.343243c0.114414,0 0.228828,0.114414 0.343243,0.114414c0.228828,0 0.343243,0.114414 0.457657,0.114414c0.228828,0 0.343243,0.114414 0.572071,0.114414c0.228828,0 0.578192,0.290668 0.8009,0.343243c0.248995,0.05878 0.475075,0.14126 0.686485,0.228828c0.149488,0.061921 0.262339,0.033511 0.343243,0.114414c0.080904,0.080903 0.193756,0.166908 0.343245,0.228828c0.211411,0.087569 0.422583,0.166908 0.572071,0.228829c0.105705,0.043785 0.308168,0.052494 0.457657,0.114414c0.105705,0.043785 0.114414,0.114414 0.343243,0.114414c0.114414,0 0.123123,0.07063 0.228828,0.114414c0.149488,0.061921 0.262339,0.147925 0.343243,0.228828c0.080904,0.080903 0.114414,0.114414 0.228828,0.114414c0.114414,0 0.228828,0.114415 0.343243,0.228828c0.114414,0.114414 0.208662,0.170049 0.457657,0.228829c0.222708,0.052574 0.308168,0.166908 0.457657,0.228828c0.105705,0.043784 0.246246,0.026845 0.457657,0.114414c0.149488,0.06192 0.114414,0.228828 0.228828,0.228828l0.114414,0.114414" id="svg_13" stroke-width="1.5" stroke="#fff" fill="none"/>
  <path d="m1.831117,1.716699c0,0.228829 0.029348,0.320017 0.114414,0.457657c0.190215,0.307774 0.114414,0.457657 0.228829,0.572071c0.114414,0.114414 0.114414,0.228828 0.114414,0.343243c0,0.114414 0.285756,0.334753 0.343243,0.915314c0.011274,0.113857 0.033511,0.26234 0.114414,0.343243c0.080903,0.080903 0,0.228828 0,0.343243c0,0.114414 0.114414,0.228828 0.114414,0.343243c0,0.114415 0,0.228829 0,0.343243c0,0.114414 0.114414,0.343243 0.114414,0.572071c0,0.114414 0,0.228828 0,0.457657c0,0.114414 0.033511,0.147926 0.114414,0.228829c0.080903,0.080903 0.026845,0.475075 0.114414,0.686485c0.061921,0.149489 0.166908,0.193754 0.228828,0.343243c0.043785,0.105705 -0.036654,0.231784 0,0.457657c0.057956,0.357138 0.114414,0.457657 0.114414,0.572071c0,0.114414 0,0.228828 0,0.457657c0,0.114414 0,0.228828 0,0.343243c0,0.114414 0,0.343244 0,0.457658c0,0.228828 0.114414,0.228828 0.114414,0.457657c0,0.114414 0,0.228828 0,0.343243c0,0.114414 0,0.228828 0,0.343243c0,0.114414 0,0.343243 0,0.457657c0,0.228828 0,0.343243 0,0.457657c0,0.114414 0,0.228828 0,0.343243c0,0.114414 0,0.228828 0,0.343244c0,0.114414 0,0.228828 0,0.343243c0,0.228828 0,0.343243 0,0.457657c0,0.114414 0,0.228828 0,0.343243c0,0.228828 0,0.343243 0,0.457657c0,0.114414 0.114414,0.228828 0.114414,0.343243c0,0.114414 0,0.228828 0,0.343243c0,0.228828 0,0.343243 0,0.572072c0,0.114414 0,0.228828 0,0.343243c0,0.114413 0,0.228827 0,0.343242c0,0.114414 0,0.343245 0,0.457659c0,0.114414 0,0.228828 0,0.343243c0,0.114414 0,0.228828 0,0.343243c0,0.114414 0,0.343243 0,0.457657c0,0.228828 0,0.572071 0,0.686485c0,0.114414 0,0.228828 0,0.343243c0,0.228828 0,0.457657 0,0.572071c0,0.114414 0,0.228828 0,0.343243c0,0.114414 0,0.228828 0,0.343243c0,0.114414 0,0.228828 0,0.343243c0,0.114414 0,0.228828 0,0.457657c0,0.114414 0,0.228828 0,0.343243l0,0.114414" id="svg_14" stroke-width="1.5" stroke="#fff" fill="none"/>
  <path d="m22.768925,8.810383c0,0.114414 -0.114414,0.114414 -0.228828,0.228828c-0.114414,0.114414 -0.20874,0.125614 -0.343243,0.343243c-0.060152,0.097326 -0.054262,0.131502 -0.114414,0.228828c-0.134502,0.217628 -0.351952,0.185045 -0.457657,0.228829c-0.149488,0.06192 -0.228828,0.228828 -0.343243,0.343243c-0.114414,0.114414 -0.181437,0.181437 -0.343243,0.343243c-0.161806,0.161806 -0.147924,0.147925 -0.228828,0.228828c-0.080904,0.080903 -0.07934,0.281322 -0.228828,0.343243c-0.105705,0.043784 -0.147924,0.147925 -0.228828,0.228828c-0.080904,0.080903 -0.070629,0.123123 -0.114414,0.228828c-0.06192,0.149489 -0.147924,0.26234 -0.228828,0.343243c-0.080904,0.080903 -0.07934,0.166908 -0.228828,0.228828c-0.105705,0.043784 -0.114414,0.114414 -0.228828,0.228828c-0.114414,0.114414 -0.323154,0.0112 -0.457657,0.228828c-0.060152,0.097327 -0.119324,0.195674 -0.228828,0.228829c-0.394825,0.119544 -0.572071,0.343243 -0.686485,0.457657c-0.114414,0.114414 -0.237537,0.185044 -0.343243,0.228828c-0.14949,0.06192 -0.254957,0.097475 -0.572073,0.228828c-0.298979,0.123841 -0.391167,0.276752 -0.572071,0.457657c-0.180904,0.180904 -0.589489,0.255673 -0.8009,0.343243c-0.149489,0.06192 -0.195129,0.268437 -0.457657,0.457657c-0.207546,0.149591 -0.343243,0.114414 -0.572071,0.228828c-0.228828,0.114414 -0.233738,0.195674 -0.343243,0.228829c-0.394826,0.119544 -0.73075,0.562644 -1.029729,0.686484c-0.105705,0.043785 -0.281322,0.07934 -0.343243,0.228828c-0.043784,0.105705 -0.123124,0.070629 -0.228828,0.114414c-0.14949,0.061922 -0.26234,0.033512 -0.343243,0.114416c-0.080903,0.080904 -0.123123,0.185043 -0.228828,0.228828c-0.149489,0.06192 -0.193753,0.281322 -0.343243,0.343243c-0.105705,0.043785 -0.168677,0.017088 -0.228828,0.114414c-0.134502,0.217628 -0.263003,0.108526 -0.457657,0.228828c-0.217628,0.134502 -0.262341,0.147926 -0.343243,0.228828c-0.080903,0.080904 -0.114415,0.228828 -0.228829,0.343243c-0.114414,0.114414 -0.147925,0.147924 -0.228828,0.228828c-0.080903,0.080904 -0.079339,0.166908 -0.228828,0.228828c-0.105705,0.043785 -0.147925,0.03351 -0.228828,0.114414c-0.080903,0.080904 -0.114414,0.114414 -0.114414,0.228828c0,0.114414 -0.211979,0.134218 -0.343243,0.228828c-0.415093,0.299183 -0.536996,0.395737 -0.686485,0.457657c-0.105705,0.043785 -0.211979,0.134218 -0.343243,0.228828c-0.207546,0.149591 -0.47894,0.193651 -0.686486,0.343243c-0.131264,0.09461 -0.383857,0.066866 -0.686486,0.228828c-0.363714,0.194654 -0.440807,0.363047 -0.572071,0.457657c-0.207547,0.149591 -0.478939,0.193651 -0.686486,0.343243c-0.131264,0.09461 -0.147925,0.147924 -0.228828,0.228828c-0.161806,0.161806 -0.26234,0.03351 -0.343243,0.114414c-0.080903,0.080904 -0.281322,-0.035074 -0.343243,0.114414c-0.043785,0.105705 -0.147926,0.03351 -0.228829,0.114414c-0.080903,0.080904 -0.156978,0.04406 -0.572071,0.343243c-0.131264,0.09461 -0.193752,0.281322 -0.343243,0.343245c-0.105705,0.043785 -0.228828,0 -0.343243,0l0,0.114414" id="svg_15" stroke-width="1.5" stroke="#fff" fill="none"/>
  <path d="m3.318502,20.823879c0,0 0,0.114414 0,0.228828c0,0.114414 0,0.457657 0,0.572071c0,0.114414 0.114414,0.228828 0.114414,0.343243c0,0.114414 0,0.228828 0.114414,0.457659l0,0.114414l0,0.114414" id="svg_16" stroke-width="1.5" stroke="#fff" fill="none"/>
  <path d="m21.28154,8.46714c0.228828,0.114414 0.510151,0.193753 0.572071,0.343243c0.043785,0.105705 0.123123,0.07063 0.228828,0.114414c0.149488,0.06192 0.333817,0.044264 0.457657,0.343243c0.043785,0.105705 0.114414,0.114414 0.228828,0.114414l0.114414,0l0,0.114414" id="svg_17" stroke-width="1.5" stroke="#fff" fill="none"/>
  <path d="m21.052711,18.764423c0,0 0,-0.114414 -0.114414,-0.114414c-0.114414,0 -0.07934,-0.052494 -0.228828,-0.114414c-0.105705,-0.043785 -0.03351,-0.147924 -0.114414,-0.228828c-0.161806,-0.161806 -0.457657,-0.228828 -0.572071,-0.343243c-0.114414,-0.114414 -0.237537,-0.185043 -0.343243,-0.228828c-0.149488,-0.06192 -0.117476,-0.202541 -0.228828,-0.228828c-0.248995,-0.058779 -0.351952,-0.070629 -0.457657,-0.114414c-0.149488,-0.06192 -0.237537,-0.185043 -0.343243,-0.228828c-0.149488,-0.06192 -0.147924,-0.147924 -0.228828,-0.228828c-0.080904,-0.080904 -0.106592,-0.122812 -0.228828,-0.228828c-0.432173,-0.374823 -0.457657,-0.343245 -0.800901,-0.686487c-0.114414,-0.114413 -0.228828,-0.228827 -0.343243,-0.343242c-0.114414,-0.114414 -0.228828,-0.228828 -0.343243,-0.343244c-0.114414,-0.114414 -0.262339,-0.147925 -0.343243,-0.228828c-0.080904,-0.080903 -0.114414,-0.114414 -0.228828,-0.228828c-0.114414,-0.114414 -0.114414,-0.228828 -0.228828,-0.228828l-0.114414,0" id="svg_18" stroke-width="1.5" stroke="#fff" fill="none"/>
  <path d="m49.313034,48.855373c0,0.114414 0.323154,0.125614 0.457657,0.343243c0.06015,0.097328 0.120537,0.06184 0.343243,0.114414c0.248993,0.058781 0.343243,0.114414 0.343243,0.228828l0.114414,0" id="svg_19" stroke-width="1.5" stroke="#fff" fill="none"/>
  <path d="m2.860845,1.144628c-0.114414,0 -0.228829,0.114414 -0.343243,0.114414c-0.114414,0 -0.228828,0 -0.343243,0c-0.228829,0 -0.343243,0 -0.343243,-0.228829l-0.114414,0l-0.114414,0" id="svg_20" stroke-width="1.5" stroke="#fff" fill="none"/>
  <path stroke="#fff" d="m1.716703,1.030214c-0.171621,0 -0.514864,-0.114414 -0.514864,-0.228828c0,-0.114414 -0.171621,-0.114414 -0.171621,-0.228828c0,-0.114414 -0.171621,-0.114414 -0.171621,-0.228829l-0.171621,0" id="svg_21" stroke-width="1.5" fill="none"/>
 </g>
</svg>