
 <svg width="2000" height="1000" xmlns="http://www.w3.org/2000/svg">
 <!-- Created with Method Draw - http://github.com/duopixel/Method-Draw/ -->
 <g>
  <title>background</title>
  <rect fill="#000000" id="canvas_background" height="1002" width="2002" y="-1" x="-1"/>
  <g display="none" overflow="visible" y="0" x="0" height="100%" width="100%" id="canvasGrid">
   <rect fill="url(#gridpattern)" stroke-width="0" y="0" x="0" height="100%" width="100%"/>
  </g>
 </g>
 <g>
  <title>Layer 1</title>
  <path id="horse" d="m892.525666,577.84609c8.477948,-0.106519 -8.074064,-0.494335 -11.010055,-0.708095c-24.532763,-0.594903 -44.892816,-24.986142 -42.243044,-49.191872c0.536562,-24.221891 23.866132,-45.499655 48.148166,-43.062227c6.320616,-2.684957 15.293024,6.175873 19.217356,1.943611c10.079781,-17.781148 19.846028,-35.74805 30.331964,-53.292666c8.931879,-1.274874 19.57292,-2.260305 28.26179,0.156134c4.016991,6.327653 -3.286478,8.050327 -7.843883,7.073479c-5.086649,0 -10.173298,0 -15.259955,0c-3.682383,6.718236 -7.461066,13.382934 -11.223729,20.056342c21.371905,0 42.743833,0 64.115737,0c0.475918,-2.273417 5.874364,-7.171736 1.088381,-6.639293c-8.695127,-1.095904 -3.255987,-11.145189 3.183064,-8.286364c9.038445,0.332125 18.396391,-0.890987 27.163583,0.920999c4.683316,9.399192 -8.858202,7.382761 -14.662969,7.482385c-4.296631,-1.402372 -5.187044,2.892861 -6.888227,5.83191c-6.897385,7.06521 -2.610226,14.511554 2.025486,21.398989c1.700381,3.133237 2.911726,7.481812 7.049447,4.554176c8.437812,-1.854127 17.636596,-1.921374 26.032684,0.246625c17.544447,5.212372 31.611491,21.478978 32.789208,39.905511c1.062717,11.318286 -1.35689,22.984764 -8.401936,32.115423c-8.171213,11.703815 -21.432054,18.112401 -35.382667,19.412412m-10.937549,0.114245c-12.718352,-3.26377 -24.444363,-10.856808 -31.24261,-22.320161c-4.448898,-5.729841 -5.027263,-14.60133 -7.391932,-20.349038c-6.236697,-0.081601 -12.473401,-0.163209 -18.710113,-0.244802c-12.631705,-20.320653 -23.76547,-41.572721 -35.950254,-62.176653c-2.375148,7.053678 -15.877811,16.650265 -8.422263,23.143296c18.710939,15.699899 21.202675,46.366093 5.198914,64.851721c-7.334149,8.221569 -17.508186,13.887221 -27.966728,17.089859m0.80331,-11.179406c20.182232,-4.394991 33.079089,-27.665683 26.098288,-47.073324c-2.157363,-6.320932 -8.093338,-16.418032 -13.336177,-16.521509c-5.588695,9.649174 -10.616382,19.643835 -16.741459,28.96968c-13.4501,2.365849 -1.127409,-14.011001 1.718547,-19.575943c3.051258,-6.789752 14.131595,-17.773288 0.17327,-17.610661c-9.799214,-0.975142 -20.2131,-0.032134 -28.140282,6.472004c-17.012185,11.257846 -20.232052,37.006974 -7.348833,52.528941c8.721578,11.307997 23.782802,16.115565 37.576636,12.810819l0.000008,-0.000008zm141.207378,-0.002798c17.226236,-4.047381 29.622462,-21.752267 27.392727,-39.324057c-1.179273,-19.528041 -20.654274,-35.321253 -40.015824,-32.696524c-14.50847,-1.373115 -0.618296,11.946337 1.455517,18.421604c1.972923,6.875558 12.841315,15.320328 6.773526,22.025437c-13.609402,0.570135 -27.552485,-0.40037 -41.124517,0.971896c2.437639,17.996732 19.469177,32.883896 37.847417,31.506741c2.579137,-0.021035 5.170702,-0.239228 7.671163,-0.905097l-0.000008,0zm-55.597292,-40.219501c1.63921,-14.081133 9.620889,-26.88979 21.261456,-34.904289c0.687736,-3.454097 -6.360728,-19.363181 -8.941603,-8.271751c-7.966249,14.479821 -15.974614,28.940235 -23.69676,43.551327c3.699354,0.089477 7.846304,0.735427 11.376908,-0.375287zm41.582773,-0.69838c-4.592149,-8.632897 -9.286265,-17.213985 -14.086066,-25.733155c-9.628553,5.077524 -15.962917,15.822917 -17.460268,26.548139c10.513157,-0.224105 21.202675,0.549328 31.573697,-0.560073l-0.027323,-0.254918l0,0l-0.000039,0.000008zm-45.037215,-31.138748c4.529021,-8.358988 9.143997,-16.673933 13.533131,-25.107156c-19.08529,-0.427851 -38.213884,-0.521572 -57.292729,0.090428c9.799733,16.842377 18.653258,34.337149 29.368314,50.587563c5.181102,-7.969426 9.581453,-17.144608 14.391284,-25.570827l0,-0.000008z" fill-opacity="null" stroke-opacity="null" stroke-width="1.5" stroke="#ffffff" fill="none"/>
  <path id="svg_12" d="m1018.893786,444.616617c-3.48459,-4.766069 -8.903279,-5.309571 -10.20625,-12.093449c-1.02127,-3.689878 -10.649011,-8.638734 -4.950853,-2.01591c4.399987,3.990859 9.627445,18.711039 -1.197454,14.060185c-8.233146,-3.021579 -8.58619,-12.351933 -10.793064,-19.337239c-7.176603,-4.97913 1.855459,-15.507137 -5.871701,-21.886718c-6.558171,-6.659521 -1.990816,-19.131818 -11.361895,-23.853785c-4.703658,-1.909083 -6.739619,11.272262 -7.531588,1.629245c-2.57693,-9.752942 -11.677965,4.740994 -17.746788,3.204408c-4.897192,-0.42573 8.191734,-3.830294 1.945629,-4.746494c-3.672232,2.010289 -7.069934,5.486201 -7.65091,-0.267463c-4.417476,-2.623589 -13.681017,-6.813356 -13.440378,-10.981177c3.836126,-1.205089 16.786451,2.281901 14.542211,-2.563181c-3.850979,-1.461474 -4.550529,-5.456506 0.166161,-2.775313c9.29528,0.291592 20.191992,-3.418851 27.926257,3.67778c4.034219,2.482268 8.000805,11.384913 10.16052,2.733207c6.961907,-8.396943 21.00991,-9.108193 25.301606,-19.980131c1.038536,-5.259981 -3.189603,-8.260953 -6.781538,-9.326398c-0.698814,-1.728618 -1.888417,-9.067685 -4.858705,-5.36416c0.135381,-3.24146 2.921664,-10.992936 -3.250054,-7.561355c-0.625982,-6.90411 5.276047,-13.792137 -2.531544,-18.819795c7.315295,1.357048 5.872751,-6.982755 4.279411,-8.305417c4.336443,-0.615761 9.425462,-4.518042 7.034498,-9.352305c4.709261,8.549433 4.872551,-10.372044 8.749661,-2.216318c7.135842,1.169864 -2.216843,-6.375329 4.346381,-4.691217c3.747675,0.128235 2.915332,-4.106339 6.282029,-0.910362c4.45577,-2.431231 -3.415787,-9.778807 3.778528,-4.673626c2.41847,2.101062 10.118198,7.604052 8.736689,0.342369c6.836206,7.292384 12.215942,-6.773385 17.896564,-9.686268c2.253232,-2.695697 7.153077,-5.548582 2.634137,-0.40279c-2.999989,6.559298 -13.177944,13.655067 -10.439761,20.172682c-2.478487,2.256428 5.00072,5.092367 -0.95304,4.238114c-3.527178,3.807426 4.7288,10.930888 5.387667,16.923189c-1.891124,4.10579 -9.092079,8.766951 -12.005046,8.619629c1.064661,-5.286208 -1.243377,-12.176183 -7.984734,-9.188194c3.776375,6.909797 8.881979,13.510833 12.080821,21.025114c3.126638,7.386896 8.195943,15.917266 14.865318,6.410324c4.250869,-6.059325 16.394546,-5.97161 13.058779,3.868758c-1.705255,9.662954 2.86023,22.416108 -5.912245,29.072288c-5.29204,10.197585 -11.158977,-3.79168 -7.001317,-9.083943c-1.059414,-1.51236 -1.878985,-2.579946 1.22113,-4.647242c-0.640124,-1.550691 8.921612,-7.384797 4.102534,-10.964695c-5.480912,6.215102 -13.500756,13.409109 -11.271948,22.647774c1.808921,6.191022 -13.11019,16.804965 -11.917174,6.530388c0.267228,-3.993048 5.968173,-11.732023 4.65589,-12.729038c-4.162207,7.809665 -10.083148,15.312518 -19.030293,17.631218c-7.442269,0.44103 -11.34083,6.433319 -7.806638,13.081828c0.675415,9.421235 -4.297684,17.947921 -5.442612,27.120822c2.128284,9.729067 15.085864,11.695067 16.844664,21.61946c3.022164,6.665226 -4.537455,5.680212 -8.059573,3.815194l0.000018,0.000006zm-18.426775,-29.024948c-1.090882,-4.397834 -3.335833,11.432205 -0.568523,3.030263l0.414272,-1.48439l0.154251,-1.545878l0,0.000006z" fill-opacity="null" stroke-opacity="null" stroke-width="1.5" stroke="#ffffff" fill="none"/>
 </g>
     <script src="svg.js" type="text/javascript"></script>

</svg>
