<svg width="75" height="75" xmlns="http://www.w3.org/2000/svg">
 <!-- Created with Method Draw - http://github.com/duopixel/Method-Draw/ -->
 <g>
  <title>background</title>
  <rect fill="none" id="canvas_background" height="77" width="77" y="-1" x="-1"/>
  <g display="none" overflow="visible" y="0" x="0" height="100%" width="100%" id="canvasGrid">
   <rect fill="url(#gridpattern)" stroke-width="0" y="0" x="0" height="100%" width="100%"/>
  </g>
 </g>
 <g>
  <title>Layer 1</title>
  <path d="m-0.259607,0.037124c0,0 0.022159,0.070366 0.148368,0.148368c0.282212,0.174417 0.328141,0.402688 0.741839,0.741839c0.324531,0.266052 0.399619,0.513175 0.593471,0.593471c0.274148,0.113556 0.575893,0.176599 1.038575,0.445104c0.286943,0.166519 0.547987,0.513175 0.741839,0.593471c0.137074,0.056778 0.358881,0.062145 0.593472,0.296736c0.23459,0.23459 0.191823,0.340191 0.296736,0.445103c0.104912,0.104912 0.148368,0.148368 0.296736,0.148368c0.148368,0 0.148368,0.296736 0.445104,0.593472c0.148368,0.148368 0.239958,0.159662 0.296736,0.296736c0.080296,0.193851 0.0574,0.432879 0.445103,0.593471c0.137074,0.056778 0.296736,0.445104 0.445104,0.593472c0.148368,0.148368 0.507249,0.186437 0.741839,0.890207c0.093836,0.281508 0.270687,0.459627 0.445104,0.741839c0.390008,0.631046 0.639577,0.969573 0.890207,1.186943c0.354444,0.307407 0.940279,1.084569 1.186943,1.483678c0.330933,0.53546 0.670517,0.527922 1.038575,1.038575c0.193984,0.269138 0.328141,0.402689 0.741838,0.741839c0.811328,0.66513 1.212625,1.165092 1.335311,1.33531c0.193984,0.269138 0.445104,0.593472 0.593472,0.741839c0.148368,0.148368 0.469027,0.711611 1.038574,1.186942c0.25471,0.212575 0.466886,0.424815 0.741839,0.741839c0.486054,0.560425 0.74184,1.038574 1.335311,1.632046c0.296735,0.296736 0.803985,1.249088 1.038575,1.483679c0.234591,0.234589 0.296736,0.445103 0.741838,0.890207c0.296736,0.296736 0.741838,0.890207 1.038574,1.186943c0.445105,0.445103 0.890207,0.890205 1.186943,1.186941c0.296736,0.296736 0.76362,0.573183 1.038574,0.890207c0.486055,0.560425 0.82551,0.796398 1.335312,1.33531c0.367624,0.388615 0.86241,0.920891 1.186941,1.186943c0.413698,0.339151 1.066174,0.696222 1.335312,0.890207c0.510653,0.368059 0.637537,0.684544 1.038574,1.038574c0.248714,0.219561 0.59347,0.445107 1.038574,0.890207c0.148369,0.148367 0.50725,0.507248 0.74184,0.741838c0.234591,0.234591 0.344755,0.52228 0.59347,0.74184c0.401037,0.354031 0.639467,0.643543 1.038576,0.890207c0.53546,0.330933 0.796932,0.704266 1.186941,1.33531c0.174417,0.282211 0.324333,0.547855 0.593472,0.74184c0.510654,0.368057 0.819321,0.946693 1.186945,1.335308c0.5098,0.53891 0.890202,0.74184 1.186939,1.335312c0.148369,0.296734 0.419056,0.607994 0.593472,0.890205c0.390007,0.631046 0.582798,1.129234 0.890209,1.483681c0.217369,0.250626 0.696224,0.769436 0.890205,1.038574c0.368053,0.510654 0.506165,0.801781 1.038574,1.483677c0.258259,0.330772 0.331551,0.46769 0.445107,0.74184c0.240887,0.581554 0.685059,0.604767 0.741837,0.741837c0.160595,0.387707 0.296738,0.445107 0.593472,0.74184c0.148369,0.148369 0.210514,0.358883 0.445103,0.593472c0.234592,0.234592 0.387398,0.137695 0.74184,0.445103c0.250633,0.217369 0.476505,0.55106 0.890205,0.890209c0.324532,0.266052 0.445107,0.593472 0.74184,0.890205c0.148369,0.148369 0.296738,0.445103 0.445103,0.593472c0.148369,0.148369 0.22673,0.314293 0.296738,0.445103c0.252419,0.471649 0.723686,0.603264 0.890205,0.890209c0.268505,0.462685 0.39962,0.661541 0.593472,0.741837c0.137074,0.056778 0.324333,0.251125 0.593472,0.445107c0.340435,0.245373 0.357704,0.844563 1.038574,1.335308c0.269138,0.193985 0.547855,0.472702 0.74184,0.74184c0.245369,0.340435 0.507248,0.507248 0.74184,0.74184c0.234589,0.234589 0.445099,0.593475 1.335308,1.483677c0.296738,0.296734 0.493126,0.373909 0.74184,0.593472c0.401035,0.354031 0.644836,0.54977 0.890205,0.890205c0.193985,0.269138 0.579575,0.905548 0.74184,1.038574c0.4137,0.339149 0.617397,0.859978 1.186943,1.335312c0.254707,0.212574 0.576717,0.462513 1.038574,0.890205c1.003647,0.929409 1.386677,1.43998 1.632046,1.780415c0.193985,0.269138 0.637539,0.832912 1.038574,1.186943c0.248714,0.219563 0.601086,0.398186 0.74184,0.445103c0.703773,0.234592 0.880436,0.763248 1.186943,0.890209c0.433464,0.179546 0.952351,0.507248 1.186943,0.741837c0.234592,0.234589 0.605385,0.797688 1.186943,1.038578c0.13707,0.056778 0.296734,0.296734 0.445103,0.445103c0.296734,0.296738 0.445107,0.445107 0.593472,0.593468c0.296738,0.29673 0.470787,0.274887 0.593472,0.445107c0.193981,0.269142 0.593472,0.593468 0.890205,0.890205c0.148369,0.148369 0.409653,0.506813 0.890209,0.741844c0.421471,0.206131 0.705074,0.487114 1.03857,0.741837c0.950607,0.726074 1.397461,0.952354 1.63205,1.186943c0.234589,0.234589 0.296738,0.296738 0.593468,0.593468c0.148369,0.148369 0.423256,0.322418 0.593475,0.445107c0.269142,0.193985 0.472694,0.399483 0.741837,0.593468c0.170219,0.122688 0.15966,0.23996 0.296738,0.296738c0.193855,0.080299 0.191826,0.340195 0.296738,0.445107c0.104912,0.104912 0.251251,0.216438 0.445099,0.29673c0.137077,0.056778 0.41906,0.014526 0.593475,0.296738c0.078003,0.126213 0.270683,0.162895 0.445099,0.445107c0.078003,0.126213 0.070366,0.170525 0.148369,0.296738c0.174416,0.282211 0.340195,0.191818 0.445107,0.29673c0.104912,0.104912 0.191826,0.191826 0.296738,0.296738c0.104904,0.104904 0.311256,0.270691 0.593468,0.445107c0.126213,0.078003 0.162895,0.270683 0.445107,0.445099c0.126213,0.078003 0.308022,0.091591 0.445099,0.148369c0.193855,0.080299 0.340195,0.340195 0.445107,0.445107c0.209824,0.209824 0.445099,0.29673 0.593468,0.29673l0.148369,0l0,0.148369l0.148369,0" id="svg_3" stroke-width="1.5" stroke="#ffffff" fill="none"/>
  <path d="m0.185496,74.666138c0.148368,0 0.296736,0 0.445103,0c0.296736,0 0.472702,0.045616 0.741839,-0.148361c0.170219,-0.122688 0.547987,-0.513176 0.741839,-0.593475c0.274148,-0.113556 0.507248,-0.062149 0.741839,-0.296738c0.234587,-0.234589 0.08691,-0.383644 0.296736,-0.593468c0.104912,-0.104912 0.25112,-0.175964 0.445104,-0.445107c0.122686,-0.170219 0.318894,-0.218727 0.445103,-0.29673c0.282214,-0.174416 0.296736,-0.593475 0.445104,-0.741844c0.296736,-0.296738 0.399619,-0.661537 0.593472,-0.741837c0.137074,-0.056778 0.148367,-0.148369 0.296735,-0.296738c0.296736,-0.296738 0.50725,-0.358879 0.741839,-0.593468c0.234593,-0.234589 0.696225,-0.76944 0.890207,-1.038574c0.245374,-0.340439 0.593469,-0.445107 1.038575,-0.890213c0.296733,-0.29673 0.593471,-0.593468 0.741838,-0.741837c0.445104,-0.445107 1.038575,-1.038574 1.186943,-1.186943c0.148368,-0.148369 0.363575,-0.215202 0.741839,-0.593468c0.378267,-0.378265 0.724821,-0.761086 0.890206,-0.890213c0.681895,-0.53241 0.829967,-0.669582 1.186943,-0.890205c0.399108,-0.246662 0.799237,-0.877979 1.186942,-1.038574c0.137074,-0.056778 0.296737,-0.296734 0.741839,-0.741837c0.148368,-0.148369 0.593472,-0.445107 0.741839,-0.593472c0.593475,-0.593468 0.844591,-0.917805 1.038574,-1.186943c0.122686,-0.170219 0.74184,-0.890209 0.890207,-1.038574c0.296738,-0.296738 0.637537,-0.981281 1.038574,-1.335312c0.248714,-0.219559 0.368834,-0.349335 0.593472,-0.593472c0.541,-0.587959 0.593472,-1.038574 0.74184,-1.186943c0.296734,-0.296734 0.655615,-0.655617 0.890205,-0.890205c0.234592,-0.234592 0.251122,-0.472702 0.445105,-0.74184c0.368059,-0.510651 0.672838,-0.491211 0.890207,-0.74184c0.307405,-0.354443 0.59347,-1.186943 1.038574,-1.632046c0.296736,-0.296734 0.445103,-0.593472 0.741838,-0.890205c0.148369,-0.148369 0.296736,-0.445103 0.593472,-1.038574c0.148369,-0.296738 0.270687,-0.459629 0.445105,-0.74184c0.390009,-0.631046 0.585836,-1.231258 0.741838,-1.483677c0.174417,-0.282211 0.763248,-0.880436 0.890207,-1.186943c0.179548,-0.433464 0.545914,-0.678204 0.890207,-1.335312c0.217749,-0.415588 0.312077,-0.579575 0.445103,-0.74184c0.339149,-0.413696 0.496466,-0.846504 0.741838,-1.186939c0.193985,-0.269138 0.559275,-0.503117 0.890207,-1.038578c0.246662,-0.399109 0.445105,-0.741837 0.74184,-1.038574c0.59347,-0.593472 0.868355,-1.064259 1.038574,-1.186943c0.269138,-0.193981 0.607992,-0.864155 0.890207,-1.038574c0.126209,-0.078003 0.522148,-0.231186 0.890205,-0.741837c0.38797,-0.538277 0.769436,-1.141327 1.038574,-1.335312c0.510654,-0.368061 0.890209,-0.74184 1.186943,-1.038574c0.148369,-0.148369 1.232937,-0.791912 1.632046,-1.038574c0.17849,-0.11031 0.334686,-0.534248 0.593472,-0.74184c0.47718,-0.382782 0.787014,-0.514729 1.335312,-0.74184c0.581554,-0.240887 0.71999,-0.767517 0.890205,-0.890205c0.269138,-0.193985 0.662251,-0.552681 1.632046,-1.186943c0.277653,-0.181591 0.65461,-0.440437 1.186943,-0.741838c1.278122,-0.72366 1.527744,-1.574753 1.928783,-1.928783c0.248711,-0.219559 0.921616,-0.55105 1.335312,-0.890205c0.162266,-0.133026 0.206375,-0.410908 0.741837,-0.74184c0.399109,-0.246662 0.725883,-0.461967 1.038574,-0.741838c0.707886,-0.633589 1.038574,-0.890205 1.483681,-1.33531c0.296734,-0.296734 1.038574,-0.890207 1.335308,-1.186943c0.148369,-0.148369 0.476513,-0.402689 0.890209,-0.741838c0.324532,-0.266052 0.741837,-0.593472 1.335308,-1.038576c0.593472,-0.445103 0.862411,-0.772522 1.186943,-1.038574c0.413696,-0.339151 0.802811,-0.844564 1.483681,-1.33531c0.269138,-0.193983 0.472698,-0.547857 0.741837,-0.74184c0.510651,-0.368059 0.649483,-0.419966 0.890209,-0.593472c0.380615,-0.274334 0.890205,-1.038572 1.186943,-1.33531c0.148365,-0.148367 0.445107,-0.593468 1.038574,-1.186942c0.148365,-0.148367 0.278584,-0.306528 0.445103,-0.593472c0.268505,-0.462681 0.593472,-0.741839 1.038574,-1.186942c0.593472,-0.593472 1.386673,-1.43998 1.632046,-1.780415c0.193985,-0.269138 0.567184,-0.612165 0.890209,-1.038574c0.825989,-1.090343 1.237011,-1.381307 1.483677,-1.780415c0.220627,-0.356975 0.846504,-1.238306 1.186943,-1.483678c0.269142,-0.193984 0.68454,-0.489168 1.038574,-0.890207c0.219559,-0.248713 0.402687,-0.624878 0.741837,-1.038575c0.931175,-1.135863 1.313461,-1.360993 1.483681,-1.483679c0.269142,-0.193984 0.537315,-0.752203 1.038574,-1.186942c0.354446,-0.307409 0.741837,-0.445103 0.890205,-0.593471c0.148369,-0.148368 0.296738,-0.148368 0.445107,-0.296736c0.148369,-0.148368 0.274887,-0.322417 0.445107,-0.445103c0.269135,-0.193982 0.428566,-0.473902 1.186935,-0.890207c0.290825,-0.159647 0.445107,-0.296736 0.593475,-0.445104c0.296738,-0.296736 0.324333,-0.39949 0.593468,-0.593471c0.170219,-0.122687 0.15966,-0.239958 0.296738,-0.296736c0.193855,-0.080296 0.148369,-0.296736 0.296738,-0.296736l0,-0.148368" id="svg_4" stroke-width="1.5" stroke="#ffffff" fill="none"/>
 </g>
</svg>